# xmcd CD database file
#
# Track frame offsets:
#	150
#	15729
#	29614
#	44662
#	60241
#	73315
#	90824
#	102939
#	116842
#	131920
#
# Disc length: 1947 seconds
#
# Revision: 0
# Processed by: cddbd v1.5.2PL0 Copyright (c) Steve Scherf et al.
# Submitted via: CDex 1.51
#
DISCID=8a07990a
DTITLE=Madison Stuart - Dreamers Dream
DYEAR=2014
DGENRE=Country
TTITLE0=Fortune Teller
TTITLE1=Gotta Fly
TTITLE2=Lie
TTITLE3=Envy
TTITLE4=Dreamers Dream
TTITLE5=Love You
TTITLE6=Pray
TTITLE7=Say No
TTITLE8=Come On Over
TTITLE9=New Beginning
EXTD=YEAR: 2014
EXTT0=
EXTT1=
EXTT2=
EXTT3=
EXTT4=
EXTT5=
EXTT6=
EXTT7=
EXTT8=
EXTT9=
PLAYORDER=
